<svg id="collapse" xmlns="http://www.w3.org/2000/svg" viewBox="0 0 133.77 137.52"><defs><style>.cls-1{fill:#76a6b3;}</style></defs><title>collapse</title><path class="cls-1" d="M96,133.91,62.4,163.29a2.83,2.83,0,0,0,1.86,5H135a2.83,2.83,0,0,0,1.86-5l-33.6-29.38A5.55,5.55,0,0,0,96,133.91Z" transform="translate(-33.54 -30.73)"/><rect class="cls-1" x="33.54" y="87.44" width="133.77" height="25.55" rx="5.15" transform="translate(167.31 169.69) rotate(180)"/><path class="cls-1" d="M103.8,64.62l33.09-28.93a2.83,2.83,0,0,0-1.86-5H64.26a2.83,2.83,0,0,0-1.86,5L95.5,64.62A6.3,6.3,0,0,0,103.8,64.62Z" transform="translate(-33.54 -30.73)"/></svg>
