<svg id="collapse" xmlns="http://www.w3.org/2000/svg" viewBox="0 0 155.8 162.55"><defs><style>.cls-1{fill:#8a8884;}.cls-2{fill:#747b7c;}</style></defs><title>collapse</title><path class="cls-1" d="M95.41,141.31,65,175.89a2.93,2.93,0,0,0,2.2,4.87h65.07a2.93,2.93,0,0,0,2.21-4.87L104,141.31A5.74,5.74,0,0,0,95.41,141.31Z" transform="translate(-22.53 -18.21)"/><rect class="cls-2" y="66.81" width="155.8" height="30.29" rx="6.06"/><path class="cls-1" d="M104.62,57l29.84-33.9a2.94,2.94,0,0,0-2.21-4.88H67.18A2.94,2.94,0,0,0,65,23.09L94.81,57A6.53,6.53,0,0,0,104.62,57Z" transform="translate(-22.53 -18.21)"/></svg>