<svg id="collapse" xmlns="http://www.w3.org/2000/svg" viewBox="0 0 158.13 162.55"><defs><style>.cls-1{fill:#917e63;}.cls-2{fill:#c6b291;}</style></defs><title>collapse</title><path class="cls-1" d="M95.19,140.18,55.48,174.9a3.34,3.34,0,0,0,2.2,5.86h83.65a3.34,3.34,0,0,0,2.2-5.86l-39.71-34.72A6.56,6.56,0,0,0,95.19,140.18Z" transform="translate(-21.37 -18.21)"/><rect class="cls-2" x="21.37" y="85.24" width="158.13" height="30.2" rx="6.09" transform="translate(179.49 182.47) rotate(180)"/><path class="cls-1" d="M104.41,58.28l39.12-34.2a3.35,3.35,0,0,0-2.2-5.87H57.68a3.35,3.35,0,0,0-2.2,5.87L94.6,58.28A7.47,7.47,0,0,0,104.41,58.28Z" transform="translate(-21.37 -18.21)"/></svg>