<svg id="expand" xmlns="http://www.w3.org/2000/svg" viewBox="0 0 175.7 196.15"><defs><style>.cls-1{fill:#8a8884;}.cls-2{fill:#747b7c;}</style></defs><title>expand</title><rect class="cls-1" width="175.7" height="30.2" rx="6.42"/><path class="cls-2" d="M105.28,151.9,139,116.28a3.41,3.41,0,0,0-2.48-5.76H64.38a3.41,3.41,0,0,0-2.48,5.76L95.57,151.9A6.7,6.7,0,0,0,105.28,151.9Z" transform="translate(-12.58 -2.29)"/><path class="cls-2" d="M94.9,49.33l-33,34.91A3.41,3.41,0,0,0,64.38,90h72.1A3.42,3.42,0,0,0,139,84.24L106,49.33A7.61,7.61,0,0,0,94.9,49.33Z" transform="translate(-12.58 -2.29)"/><rect class="cls-1" x="12.58" y="168.24" width="175.7" height="30.2" rx="6.42" transform="translate(188.28 364.39) rotate(180)"/></svg>