<svg id="expand" xmlns="http://www.w3.org/2000/svg" viewBox="0 0 175.7 196.15"><defs><style>.cls-1{fill:#76a6b3;}</style></defs><title>expand</title><rect class="cls-1" width="175.7" height="30.2" rx="6.42"/><path class="cls-1" d="M105.24,153.12l43.86-35.69a3.89,3.89,0,0,0-2.45-6.91H54.21a3.89,3.89,0,0,0-2.46,6.91l43.87,35.69A7.62,7.62,0,0,0,105.24,153.12Z" transform="translate(-12.58 -2.29)"/><path class="cls-1" d="M95,47.94,51.75,83.09A3.89,3.89,0,0,0,54.21,90h92.44a3.89,3.89,0,0,0,2.45-6.91L105.9,47.94A8.65,8.65,0,0,0,95,47.94Z" transform="translate(-12.58 -2.29)"/><rect class="cls-1" x="12.58" y="168.24" width="175.7" height="30.2" rx="6.42" transform="translate(188.28 364.39) rotate(180)"/></svg>
