<svg xmlns="http://www.w3.org/2000/svg" viewBox="0 0 177.86 187.19"><defs><style>.a{fill:#00d7ed;}.b{fill:#008ecc;}</style></defs><title>filter_on</title><path class="a" d="M190.15,17.2v8.66a9.81,9.81,0,0,1-2.81,6.87L126.67,94.5a20.83,20.83,0,0,0-6,14.58v60.41a11.92,11.92,0,0,1-6.59,10.66l-24.6,12.3a5.48,5.48,0,0,1-7.94-4.9V109.08a20.83,20.83,0,0,0-6-14.58L15.09,32.74a9.81,9.81,0,0,1-2.8-6.87V17.2Z" transform="translate(-12.29 -5.85)"/><path class="b" d="M184.42,5.85H18a5.74,5.74,0,0,0-5.74,5.74V25.87A9.79,9.79,0,0,0,12.81,29H189.63a9.79,9.79,0,0,0,.53-3.14V11.58A5.74,5.74,0,0,0,184.42,5.85Z" transform="translate(-12.29 -5.85)"/></svg>