<svg id="filter" xmlns="http://www.w3.org/2000/svg" viewBox="0 0 177.86 187.19"><defs><style>.cls-1{fill:#6498b0;}.cls-2{fill:#5ab8b4;}</style></defs><title>filter_on</title><g id="on"><path class="cls-1" d="M190.15,17.2v8.66a9.82,9.82,0,0,1-2.81,6.88L126.67,94.5a20.82,20.82,0,0,0-6,14.58v60.41a11.93,11.93,0,0,1-6.59,10.67L89.53,192.45a5.48,5.48,0,0,1-7.94-4.9V109.08a20.85,20.85,0,0,0-6-14.58L15.09,32.74a9.85,9.85,0,0,1-2.8-6.87V17.2Z" transform="translate(-12.29 -5.85)"/><path class="cls-2" d="M184.42,5.85H18a5.73,5.73,0,0,0-5.74,5.73V25.87A10,10,0,0,0,12.81,29H189.63a9.75,9.75,0,0,0,.52-3.14V11.58A5.73,5.73,0,0,0,184.42,5.85Z" transform="translate(-12.29 -5.85)"/></g></svg>
