<svg id="filter" xmlns="http://www.w3.org/2000/svg" viewBox="0 0 177.86 187.19"><defs><style>.cls-1{opacity:0.4;}.cls-2{fill:#484852;}.cls-3{fill:#828d9e;}</style></defs><title>filter_off</title><g id="off" class="cls-1"><path class="cls-2" d="M12.39,27.2l-.06-.47Z" transform="translate(-12.29 -5.85)"/><path class="cls-2" d="M12.81,29c-.07-.23-.14-.46-.2-.7a9.81,9.81,0,0,0,2.48,4.44L75.64,94.5a20.85,20.85,0,0,1,6,14.58v78.47a5.48,5.48,0,0,0,7.94,4.9l24.59-12.29a11.93,11.93,0,0,0,6.59-10.67V109.08a20.82,20.82,0,0,1,6-14.58l60.67-61.76A9.81,9.81,0,0,0,189.63,29Z" transform="translate(-12.29 -5.85)"/><polygon class="cls-2" points="0 20.02 0 20.02 0 20.03 0 20.02"/><path class="cls-2" d="M189.83,28.3c-.06.23-.12.47-.2.7C189.71,28.77,189.77,28.54,189.83,28.3Z" transform="translate(-12.29 -5.85)"/><path class="cls-2" d="M190.11,26.73c0,.16,0,.31-.06.47C190.07,27,190.1,26.89,190.11,26.73Z" transform="translate(-12.29 -5.85)"/><path class="cls-2" d="M12.57,28.16c-.05-.2-.09-.41-.13-.62C12.48,27.75,12.52,28,12.57,28.16Z" transform="translate(-12.29 -5.85)"/><path class="cls-2" d="M190,27.54c0,.21-.08.42-.13.62C189.92,28,190,27.75,190,27.54Z" transform="translate(-12.29 -5.85)"/><path class="cls-3" d="M184.42,5.85H18a5.73,5.73,0,0,0-5.74,5.73V25.87A10,10,0,0,0,12.81,29H189.63a9.75,9.75,0,0,0,.52-3.14V11.58A5.73,5.73,0,0,0,184.42,5.85Z" transform="translate(-12.29 -5.85)"/></g></svg>
