<svg xmlns="http://www.w3.org/2000/svg" viewBox="0 0 169.09 191.99"><defs><style>.a{fill:#755b42;}.b{fill:#e8b44d;}</style></defs><title>profile_normal_star</title><path class="a" d="M95.69,5.85l-74,42.73a10.54,10.54,0,0,0-5.27,9.13v85.45a10.54,10.54,0,0,0,5.27,9.13l74,42.73a10.54,10.54,0,0,0,10.54,0l74-42.73a10.54,10.54,0,0,0,5.27-9.13V57.7a10.54,10.54,0,0,0-5.27-9.13l-74-42.73A10.54,10.54,0,0,0,95.69,5.85Z" transform="translate(-16.41 -4.44)"/><path class="b" d="M103,41.89l12.67,25.67A10,10,0,0,0,123.19,73l28.33,4.12A3.39,3.39,0,0,1,153.4,83l-20.5,20a10,10,0,0,0-2.88,8.87L134.86,140a3.39,3.39,0,0,1-4.92,3.58L104.6,130.28a10,10,0,0,0-9.33,0L69.93,143.6A3.39,3.39,0,0,1,65,140l4.84-28.21A10,10,0,0,0,67,102.94L46.46,83a3.39,3.39,0,0,1,1.88-5.79L76.67,73a10,10,0,0,0,7.55-5.48L96.89,41.89A3.39,3.39,0,0,1,103,41.89Z" transform="translate(-16.41 -4.44)"/></svg>