<svg id="refresh" xmlns="http://www.w3.org/2000/svg" viewBox="0 0 197 197"><defs><style>.cls-1{fill:#8a8884;}</style></defs><title>refresh</title><path class="cls-1" d="M196.07,12.64a8.08,8.08,0,0,0-11.55,0L167.85,29.19A99.19,99.19,0,0,0,136.43,9.12,96.7,96.7,0,0,0,100,2Q64.73,2,38.44,23.35T3.81,79.08V80A3.9,3.9,0,0,0,5,82.86a3.9,3.9,0,0,0,2.88,1.22H33.43a3.84,3.84,0,0,0,3.85-3q5.38-12.82,6.8-15A65.44,65.44,0,0,1,100,34.83,63.72,63.72,0,0,1,144.76,52.4l-17.7,17.7a8.21,8.21,0,0,0,5.78,14H190.3a8.3,8.3,0,0,0,8.2-8.21V18.41A7.87,7.87,0,0,0,196.07,12.64Z" transform="translate(-1.5 -2)"/><path class="cls-1" d="M191.19,116.92H166.57a3.84,3.84,0,0,0-3.85,3q-5.39,12.82-6.8,15A65.41,65.41,0,0,1,100,166.17a63.94,63.94,0,0,1-24-4.62,66.2,66.2,0,0,1-20.65-13.08l17.57-17.58a8.21,8.21,0,0,0-5.77-14H9.71a7.89,7.89,0,0,0-5.77,2.44,7.86,7.86,0,0,0-2.44,5.77v57.46a7.89,7.89,0,0,0,2.44,5.78,7.89,7.89,0,0,0,5.77,2.43,7.89,7.89,0,0,0,5.77-2.43L32,171.81a97.89,97.89,0,0,0,31.23,20.13A96,96,0,0,0,99.49,199q35.14,0,61.31-21.36t34.37-55.72a2.12,2.12,0,0,0,.13-.9,4.15,4.15,0,0,0-4.11-4.1Z" transform="translate(-1.5 -2)"/></svg>