<svg id="refresh" xmlns="http://www.w3.org/2000/svg" viewBox="0 0 167.63 169.44"><defs><style>.cls-1{fill:#76a6b3;}</style></defs><title>refresh</title><path class="cls-1" d="M182.36,26.84a6.73,6.73,0,0,0-9.77-.06l-14.2,14.16a84,84,0,0,0-26.52-17.41,80.88,80.88,0,0,0-30.82-6.3q-29.88-.15-52.24,18.08T19.21,83.08v.77a3.4,3.4,0,0,0,1,2.49,3.32,3.32,0,0,0,2.44,1.06l21.62.12A3.27,3.27,0,0,0,47.55,85q4.62-11,5.83-12.87A55.26,55.26,0,0,1,73.69,52.49a54.11,54.11,0,0,1,27.2-7A53.5,53.5,0,0,1,138.72,60.8L123.64,75.94a7,7,0,0,0,0,9.92A6.63,6.63,0,0,0,128.47,88l48.67.27a6.65,6.65,0,0,0,4.9-2.07,6.89,6.89,0,0,0,2.09-5l.27-49.42A6.82,6.82,0,0,0,182.36,26.84Z" transform="translate(-16.76 -17.23)"/><path class="cls-1" d="M177.74,116.5l-20.86-.11a3.27,3.27,0,0,0-3.27,2.52q-4.62,11-5.83,12.87a55.16,55.16,0,0,1-20.31,19.63,53.91,53.91,0,0,1-27.2,7A53.19,53.19,0,0,1,80,154.35,56,56,0,0,1,62.55,143l15-15a7,7,0,0,0,0-9.93,6.64,6.64,0,0,0-4.87-2.12L24,115.65a6.63,6.63,0,0,0-4.9,2.07,6.81,6.81,0,0,0-2.09,5l-.27,49.43a6.77,6.77,0,0,0,2,5,6.75,6.75,0,0,0,9.78.05L42.67,163A82.66,82.66,0,0,0,69,180.43a80.11,80.11,0,0,0,30.65,6.24q29.77.17,52-18.08t29.38-47.77a2,2,0,0,0,.11-.77,3.47,3.47,0,0,0-1-2.49A3.36,3.36,0,0,0,177.74,116.5Z" transform="translate(-16.76 -17.23)"/></svg>
