<svg id="star" xmlns="http://www.w3.org/2000/svg" viewBox="0 0 198 188.91"><defs><style>.cls-1{opacity:0.4;}.cls-2{fill:#5a5a62;}</style></defs><title>star_dim</title><g id="dim" class="cls-1"><path class="cls-2" d="M105.53,8.62l23,46.63a18.22,18.22,0,0,0,13.71,10l51.46,7.47a6.17,6.17,0,0,1,3.42,10.52l-37.24,36.3a18.19,18.19,0,0,0-5.23,16.12l8.79,51.25a6.17,6.17,0,0,1-8.95,6.5l-46-24.2a18.23,18.23,0,0,0-17,0l-46,24.2a6.17,6.17,0,0,1-9-6.5l8.79-51.25a18.19,18.19,0,0,0-5.23-16.12L2.87,83.21A6.17,6.17,0,0,1,6.29,72.69l51.46-7.47a18.22,18.22,0,0,0,13.71-10l23-46.63A6.17,6.17,0,0,1,105.53,8.62Z" transform="translate(-1 -5.19)"/></g></svg>
