<svg id="version" xmlns="http://www.w3.org/2000/svg" viewBox="0 0 134.2 196"><defs><style>.cls-1{fill:#5a5a62;}.cls-2{fill:none;stroke:#5a5a62;stroke-miterlimit:10;stroke-width:26px;}</style></defs><title>version_off</title><g id="off"><path id="A" class="cls-1" d="M68.7,198a24.41,24.41,0,1,1,24.43-24.41A24.44,24.44,0,0,1,68.7,198Z" transform="translate(-44.27 -2)"/><line id="branch_B1" class="cls-2" x1="25.05" y1="26.12" x2="25.05" y2="162.8"/><path id="branch_B2" class="cls-2" d="M72.7,126.21s27.3-.52,38.22-6.81C127.2,110,131.65,96.28,134,86.89,137.62,72.21,144.9,62.77,154,57" transform="translate(-44.27 -2)"/><path id="B1" class="cls-1" d="M69.93,50.81a24.41,24.41,0,1,1,24.43-24.4A24.45,24.45,0,0,1,69.93,50.81Z" transform="translate(-44.27 -2)"/><path id="B2" class="cls-1" d="M154,75.62a24.41,24.41,0,1,1,24.43-24.41A24.45,24.45,0,0,1,154,75.62Z" transform="translate(-44.27 -2)"/></g></svg>