<svg id="version" xmlns="http://www.w3.org/2000/svg" viewBox="0 0 155.97 191.88"><defs><style>.cls-1{fill:#c6b291;}.cls-2{fill:none;stroke:#c6b291;stroke-miterlimit:10;stroke-width:18px;}.cls-3{fill:#917e63;}</style></defs><title>version_on</title><g id="on"><path id="A" class="cls-1" d="M61.81,196.44a26.85,26.85,0,1,1,26.88-26.85A26.88,26.88,0,0,1,61.81,196.44Z" transform="translate(-34.94 -4.56)"/><line id="branch_B1" class="cls-2" x1="27.37" y1="21.56" x2="27.37" y2="158.25"/><path id="branch_B2" class="cls-2" d="M162.5,112.5c-30,2-48.9,3-69-7-26-13-31-42-31-42" transform="translate(-34.94 -4.56)"/><path id="B1" class="cls-3" d="M61.81,58.25A26.85,26.85,0,1,1,88.69,31.41,26.88,26.88,0,0,1,61.81,58.25Z" transform="translate(-34.94 -4.56)"/><path id="B2" class="cls-1" d="M164,138.06a26.85,26.85,0,1,1,26.88-26.85A26.88,26.88,0,0,1,164,138.06Z" transform="translate(-34.94 -4.56)"/></g></svg>