<svg id="version" xmlns="http://www.w3.org/2000/svg" viewBox="0 0 161.34 197.25"><defs><style>.cls-1{opacity:0.4;}.cls-2{fill:#5a5a62;}.cls-3{fill:none;stroke:#5a5a62;stroke-miterlimit:10;stroke-width:18px;}</style></defs><title>version_off</title><g id="off" class="cls-1"><path id="A" class="cls-2" d="M66.81,199.13a29.54,29.54,0,1,1,29.56-29.54A29.58,29.58,0,0,1,66.81,199.13Z" transform="translate(-37.25 -1.87)"/><line id="branch_B1" class="cls-3" x1="30.06" y1="24.25" x2="30.06" y2="160.93"/><path id="branch_B2" class="cls-3" d="M167.5,112.5c-30,2-48.9,3-69-7-26-13-31-42-31-42" transform="translate(-37.25 -1.87)"/><path id="B1" class="cls-2" d="M66.81,60.94A29.54,29.54,0,1,1,96.37,31.41,29.58,29.58,0,0,1,66.81,60.94Z" transform="translate(-37.25 -1.87)"/><path id="B2" class="cls-2" d="M169,140.75a29.54,29.54,0,1,1,29.56-29.54A29.58,29.58,0,0,1,169,140.75Z" transform="translate(-37.25 -1.87)"/></g></svg>
